# xmcd
#
# Track frame offsets: 
#        150
#        31560
#        61805
#        80517
#        97717
#        124022
#        159215
#        182967
#        207242
#        233362
#
# Disc length: 3283 seconds
#
# Revision: 1
# Processed by: cddbd v1.5.2PL0 Copyright (c) Steve Scherf et al.
# Submitted via: ExactAudioCopy v0.95b4
#
DISCID=670cd10a
DTITLE=Bonnie Tyler - Total Eclipse Of The Heart
DYEAR=2000
DGENRE=Pop
TTITLE0=Total Eclipse Of The Heart
TTITLE1=Faster Than The Speed Of Night
TTITLE2=Have You Ever Seen The Rain
TTITLE3=Here She Comes
TTITLE4=Holding Out For A Hero
TTITLE5=Loving You Is A Dirty Job But Some One Has To Do It(Long Versi
TTITLE5=on)
TTITLE6=If You Were A Woman (And I Was A Man)
TTITLE7=Take Me Back
TTITLE8=To Love Some Body
TTITLE9=A Rockin' Good Way (To Mess Around And Fall In Love)
EXTD=YEAR: 2000 ID3G: 2
EXTT0=
EXTT1=
EXTT2=
EXTT3=
EXTT4=
EXTT5=
EXTT6=
EXTT7=
EXTT8=
EXTT9=
PLAYORDER=
